<svg width="209" height="78" viewBox="0 0 209 78" fill="none" xmlns="http://www.w3.org/2000/svg">
<g clip-path="url(#clip0_204_9225)">
<g clip-path="url(#clip1_204_9225)">
<path d="M37.9782 17.7752H16.5488C13.2014 17.7752 10.813 19.9582 10.813 22.2654V62.8641C10.813 65.1084 13.2014 67.4156 16.5488 67.4156H37.9782C50.4852 67.4156 60.0449 59.4961 60.0449 50.0782V35.0497C60.0449 25.6334 50.4852 17.7752 37.9782 17.7752ZM40.6058 44.0929C40.6058 46.7118 38.137 48.5201 34.87 48.5201H31.0461C30.4892 48.5201 29.9324 48.2085 29.9324 47.4594V37.7315C29.9324 36.921 30.4892 36.5464 31.0461 36.5464H34.87C38.137 36.5464 40.6058 38.4177 40.6058 41.0995V44.0929Z" fill="#2A136F"/>
<path d="M89.356 16.9647C76.2921 16.9647 63.3871 25.1959 63.3871 35.4856V49.7052C63.3871 60.3696 76.2921 68.6637 89.356 68.6637C102.74 68.6637 115.327 60.3696 115.327 49.7052V35.4856C115.327 25.1959 102.74 16.9647 89.356 16.9647ZM94.6937 49.0804C94.6937 51.202 92.2249 53.0716 89.356 53.0716C86.4087 53.0716 84.0987 51.202 84.0987 49.0804V36.6094C84.0987 34.3635 86.4087 32.4922 89.356 32.4922C92.2249 32.4922 94.6937 34.3635 94.6937 36.6094V49.0804Z" fill="#2A136F"/>
<path d="M170.053 63.9863L161.448 43.6554L170.37 21.9538C170.529 21.5792 170.61 21.3306 170.61 20.956C170.61 19.3963 168.937 18.1498 166.945 18.1498H152.924C151.171 18.1498 149.976 19.0217 149.259 20.956C149.259 20.956 145.913 29.3115 144.56 32.1192C144.321 32.4922 144.001 33.3027 143.762 33.7403C143.684 33.9889 143.525 34.3005 143.364 34.6138C143.205 34.9867 142.727 35.237 142.089 35.237C141.691 35.237 140.656 34.9867 140.656 34.2392V20.8317C140.656 19.272 138.983 17.9626 136.991 17.9626H122.97C120.98 17.9626 119.307 19.272 119.307 20.8317V64.8597C119.307 66.4178 120.98 67.6659 122.97 67.6659H136.991C138.983 67.6659 140.656 66.4178 140.656 64.8597V52.4484C140.656 51.9495 141.213 51.575 141.691 51.5136C142.17 51.3893 142.888 51.575 143.125 52.1998C144.001 54.0695 144.958 56.191 149.1 65.9819C149.18 66.1692 150.057 67.6659 152.286 67.6659H167.103C168.141 67.6029 169.015 67.167 169.653 66.4808C170.212 65.7946 170.37 64.8597 170.053 63.9863Z" fill="#2A136F"/>
<path d="M178.094 67.6659H187.971C191.319 67.6659 193.707 65.5443 193.707 63.1757V22.2024C193.707 19.5836 191.319 17.7123 187.971 17.7123H178.094C174.988 17.7123 172.439 19.5836 172.439 22.2024V63.1757C172.439 65.5443 174.988 67.6659 178.094 67.6659Z" fill="#2A136F"/>
<path d="M40.7181 16.2125H19.2846C15.9412 16.2125 13.5487 18.4051 13.5487 20.7043V61.3094C13.5487 63.5489 15.9412 65.8626 19.2846 65.8626H40.7181C53.2251 65.8626 62.7744 57.9446 62.7744 48.5203V33.4934C62.7744 24.0691 53.2251 16.2125 40.7181 16.2125ZM43.3436 42.5367C43.3436 45.1555 40.8748 46.9671 37.6057 46.9671H33.7942C33.2312 46.9671 32.6661 46.6474 32.6661 45.9015V36.1736C32.6661 35.3663 33.2312 34.9853 33.7942 34.9853H37.6057C40.8748 34.9853 43.3436 36.8582 43.3436 39.5384V42.5367ZM92.097 15.4052C79.0269 15.4052 66.1322 23.6428 66.1322 33.9342V48.1393C66.1322 58.8133 79.0269 67.1106 92.097 67.1106C105.479 67.1106 118.062 58.8133 118.062 48.1393V33.9342C118.062 23.6428 105.479 15.4052 92.097 15.4052ZM97.4265 47.5161C97.4265 49.6473 94.9556 51.5202 92.097 51.5202C89.1415 51.5202 86.8459 49.6473 86.8459 47.5161V35.0466C86.8459 32.8088 89.1415 30.9359 92.097 30.9359C94.9556 30.9359 97.4265 32.8088 97.4265 35.0466V47.5161ZM172.784 62.4219L164.188 42.0959L173.116 20.3991C173.271 20.0197 173.349 19.7759 173.349 19.3948C173.349 17.8416 171.677 16.5935 169.692 16.5935H155.669C153.918 16.5935 152.714 17.4606 151.994 19.3948C151.994 19.3948 148.649 27.7535 147.306 30.5548C147.054 30.9359 146.743 31.7432 146.51 32.184C146.432 32.4278 146.256 32.7475 146.102 33.0526C145.945 33.432 145.458 33.6758 144.837 33.6758C144.429 33.6758 143.398 33.432 143.398 32.6861V19.2738C143.398 17.7205 141.725 16.4111 139.722 16.4111H125.718C123.715 16.4111 122.042 17.7205 122.042 19.2738V63.3051C122.042 64.8567 123.715 66.1064 125.718 66.1064H139.722C141.725 66.1064 143.398 64.8567 143.398 63.3051V50.8954C143.398 50.3932 143.961 50.0122 144.429 49.9525C144.914 49.8298 145.633 50.0122 145.866 50.637C146.743 52.51 147.696 54.6267 151.837 64.4304C151.916 64.6145 152.79 66.1064 155.028 66.1064H169.847C170.878 66.045 171.753 65.6042 172.396 64.918C172.959 64.2335 173.116 63.3051 172.784 62.4219ZM180.834 66.1064H190.713C194.059 66.1064 196.451 63.9896 196.451 61.6146V20.6429C196.451 18.0241 194.059 16.1511 190.713 16.1511H180.834C177.722 16.1511 175.175 18.0241 175.175 20.6429V61.6146C175.175 63.9896 177.722 66.1064 180.834 66.1064Z" stroke="#2A136F" stroke-width="3.26908"/>
</g>
</g>
<defs>
<clipPath id="clip0_204_9225">
<rect width="209" height="78" fill="white"/>
</clipPath>
<clipPath id="clip1_204_9225">
<rect width="198" height="155" fill="white" transform="translate(6 -33)"/>
</clipPath>
</defs>
</svg>
